<svg data-v-423bf9ae="" xmlns="http://www.w3.org/2000/svg" viewBox="0 0 175.89795295758242 60" class="font"><!----><!----><defs data-v-423bf9ae=""><linearGradient data-v-423bf9ae="" gradientTransform="rotate(25)" id="fcab1014-546b-4f7c-9606-660616062747" x1="0%" y1="0%" x2="100%" y2="0%"><stop data-v-423bf9ae="" offset="0%" style="stop-color: rgb(0, 118, 221); stop-opacity: 1;"></stop><stop data-v-423bf9ae="" offset="100%" style="stop-color: rgb(0, 205, 233); stop-opacity: 1;"></stop></linearGradient></defs><g data-v-423bf9ae="" id="5736754e-81c7-4d8e-8691-b1a619a1a031" fill="url(#fcab1014-546b-4f7c-9606-660616062747)" transform="matrix(6.1224488604322,0,0,6.1224488604322,-6.000003299927684,-22.959182749783594)"><path d="M12.38 13.55L9.83 13.55L9.80 8.36L7.28 12.59L6.05 12.59L3.54 8.50L3.54 13.55L0.98 13.55L0.98 3.75L3.26 3.75L6.71 9.41L10.07 3.75L12.35 3.75L12.38 13.55ZM27.06 3.75L29.71 3.75L26.53 13.55L23.56 13.55L21.69 7.59L19.73 13.55L16.76 13.55L13.58 3.75L16.44 3.75L18.41 10.01L20.48 3.75L23.03 3.75L25.00 10.07L27.06 3.75Z"></path></g><!----><!----></svg>